<svg width="640" height="480" xmlns="http://www.w3.org/2000/svg" xmlns:svg="http://www.w3.org/2000/svg">
 <!-- Created with SVG-edit - http://svg-edit.googlecode.com/ -->
 <g>
  <title>Layer 1</title>
  <path stroke="#000000" id="svg_1" d="m599.47075,239.38562l-72.44661,-59.72238l0,-142.63546l-62.10723,0l0,91.43649l-144.91688,-119.46427l-279.47072,230.38562l66.53164,-1.30679l0,232.92119l422.92069,0l0,-231.61439l69.48912,0l-0.00001,-0.00001zm-279.47072,198.30093l-138.00819,0l0,-136.53059l138.00819,0l0,136.53059zm134.08065,-58.51311l-90.68839,0l0,-78.83666l90.68839,0l0,78.83666z" stroke-linecap="null" stroke-linejoin="null" stroke-dasharray="null" stroke-width="5" fill="#ffffff"/>
  <path transform="rotate(7.0462965965271 343.199066162109,183.7439575195312) " fill="#000000" stroke="#000000" stroke-width="5" d="m274.08096,278.01437c4.87172,2.51054 11.52144,8.37793 16.67052,6.23011c3.3782,-1.38684 5.35533,-9.25271 7.45337,-13.39189c15.79575,-31.1221 32.96411,-66.51851 45.45989,-96.8014c0,-1.35128 0.71831,-2.39674 -0.34849,-4.23164c6.99109,-11.3792 11.7348,-23.88209 19.37308,-36.54144c2.41808,-4.02539 4.87883,-9.60831 8.27125,-11.21562l6.26567,-2.61722c7.96544,-2.04826 13.78305,-1.97714 19.33752,3.36397c2.81635,2.7239 4.11073,7.21868 6.83463,9.92124c1.84201,1.84912 8.86155,6.39369 11.47165,5.6896c2.02692,-0.54762 3.69824,-2.58877 5.12064,-5.17753l4.94995,-9.14603c1.38684,-2.60299 2.17627,-5.10641 1.52908,-7.10489c-0.8321,-2.57454 -8.4775,-5.97408 -11.03782,-6.50748c-3.75513,-0.80366 -8.20725,0.57607 -12.0335,-0.29159c-7.51738,-1.72822 -10.76045,-6.55726 -13.39189,-14.36623c-18.54809,-10.90269 -43.51831,-17.99335 -72.59216,-8.84732c-7.88721,2.48209 -15.44726,4.36677 -20.6319,9.40917c-1.03835,2.93014 1.01702,3.51333 3.17195,3.47777c-1.68554,1.53619 -4.40944,2.42519 -2.83769,6.03097c17.74443,-8.15035 52.20206,-10.9667 54.54191,5.71805c0.51206,3.71246 -2.80924,8.82599 -4.85038,13.05052c-6.43636,13.32788 -14.30223,24.13812 -20.00605,36.20718c-2.11938,0.1209 -2.60299,1.28016 -3.7338,2.04114c-18.51964,27.02559 -38.7675,60.74357 -56.18478,90.9909c-2.31851,4.02539 -7.80897,9.97102 -7.12622,13.55547c1.02413,5.48335 9.45184,8.03656 14.32356,10.5542l0.00001,-0.00001z" id="svg_2"/>
  <path stroke="#000000" transform="rotate(-78.11522674560547 293.8345642089844,181.4021453857422) " id="svg_3" d="m359.74098,173.23465c11.87053,-15.04992 14.2564,-35.5922 7.7982,-52.86213l-23.83257,30.64764l-23.49266,-5.03826l-7.78513,-24.95346l23.77374,-30.57556c-16.35466,-4.54092 -34.36962,0.93702 -46.18786,15.92928c-12.46536,15.80674 -14.50479,37.68968 -6.79156,55.44974l-62.12417,78.77423c-6.60854,8.37548 -5.80453,21.07566 1.79104,28.36276c7.59557,7.2799 19.11312,6.40054 25.72166,-1.97494l62.05227,-78.69495c17.08023,6.06898 36.55286,0.81448 49.07705,-15.06434z" stroke-width="5" fill="#000000"/>
 </g>
</svg>